<?xml version="1.0" encoding="UTF-8"?>
<svg version="1.1" xmlns="http://www.w3.org/2000/svg" width="512" height="512">
<path d="M0 0 C0.69923746 -0.00350607 1.39847493 -0.00701215 2.1189014 -0.01062447 C4.4615815 -0.01992716 6.8040124 -0.01501812 9.14670277 -0.01015663 C10.84346129 -0.01389347 12.54021809 -0.01849513 14.23697215 -0.02388728 C18.89964745 -0.0361287 23.56225105 -0.03585546 28.22493875 -0.03349853 C33.25373179 -0.03309064 38.28250176 -0.04412684 43.31128407 -0.05361366 C53.16413618 -0.07023134 63.01696436 -0.07572357 72.86982932 -0.07683842 C80.87922611 -0.07778861 88.88861501 -0.08189747 96.8980093 -0.08823967 C119.60590383 -0.10585484 142.31377945 -0.11507821 165.02168085 -0.11357872 C166.24604065 -0.11349881 167.47040046 -0.1134189 168.73186207 -0.11333656 C169.95771693 -0.1132548 171.18357179 -0.11317304 172.44657377 -0.1130888 C192.3104295 -0.11227601 212.17420937 -0.13141114 232.03804316 -0.1596133 C252.43388546 -0.18834225 272.82969077 -0.20215356 293.22555381 -0.20042574 C304.67630961 -0.19976181 316.12698592 -0.2052557 327.5777235 -0.22678185 C337.32805122 -0.24499385 347.07826342 -0.24934084 356.82860079 -0.235763 C361.80211553 -0.22923325 366.77540866 -0.22911646 371.74890232 -0.2464695 C376.30573218 -0.26220499 380.86216478 -0.25933164 385.41898499 -0.24190123 C387.06367596 -0.23883238 388.70839662 -0.24245941 390.35305258 -0.25362138 C405.09200685 -0.34699234 416.29834039 2.69284541 427.54558277 12.63226891 C435.65167127 21.83377477 440.9743468 30.66270227 440.99230385 43.15309048 C440.99465608 43.85002025 440.99700831 44.54695002 440.99943182 45.26499888 C441.00611482 47.61180813 441.00566381 49.95856191 441.00525379 52.30537987 C441.00855286 54.00041108 441.01227851 55.6954415 441.01639527 57.39047092 C441.02641862 62.05764637 441.03013261 66.72480896 441.03278458 71.39199364 C441.03668665 76.42217946 441.04626508 81.45235509 441.05499744 86.48253441 C441.07476488 98.63526984 441.08482854 110.78800611 441.09372523 122.94075361 C441.09810779 128.66298328 441.10347469 134.38521201 441.1087141 140.10744095 C441.12572687 159.12837501 441.1402211 178.14930849 441.14746284 197.17024899 C441.14937276 202.1068891 441.15129309 207.0435292 441.15324879 211.9801693 C441.15373253 213.20715516 441.15421627 214.43414103 441.15471467 215.69830828 C441.16301518 235.57522043 441.18835226 255.45207241 441.22082946 275.32895828 C441.25389757 295.73377316 441.27191139 316.13855746 441.27510709 336.54339927 C441.27727244 348.00089717 441.28602482 359.45830732 441.31156826 370.91577911 C441.33327184 380.6734688 441.34132733 390.43104944 441.33160148 400.18876053 C441.32705579 405.16631629 441.3289588 410.14364703 441.34836292 415.12117195 C441.36598799 419.68177523 441.36500213 424.24198919 441.34946563 428.80259656 C441.34708857 430.44869616 441.35141822 432.09482268 441.36329428 433.74088115 C441.46305221 448.48606338 438.42692778 459.69252324 428.48308277 470.94476891 C419.28991641 479.0435107 410.46110853 484.37349547 397.98067188 484.39148998 C396.93825918 484.39501833 396.93825918 484.39501833 395.87478763 484.39861795 C393.53473106 484.40530081 391.19473011 484.40484994 388.8546648 484.40443993 C387.16447108 484.407739 385.47427815 484.41146467 383.78408623 484.41558141 C379.13024296 484.42560469 374.4764126 484.42931874 369.82256007 484.43197072 C364.80667017 484.43587284 359.79079049 484.4454513 354.77490711 484.45418358 C342.65627863 484.47395145 330.53764931 484.48401499 318.41900873 484.49291137 C312.71234902 484.49729408 307.00569024 484.50266096 301.29903126 484.50790024 C282.32871156 484.52491347 263.35839245 484.53940739 244.38806629 484.54664898 C239.46449756 484.54855888 234.54092883 484.55047921 229.61736012 484.55243492 C228.39362718 484.55291866 227.16989424 484.5534024 225.90907848 484.5539008 C206.08780728 484.56220013 186.26659644 484.58753499 166.4453516 484.6200156 C146.0959025 484.65308989 125.74648407 484.67109811 105.39700794 484.67429322 C93.97133612 484.67645806 82.54575232 484.68520288 71.1201067 484.71075439 C61.38879593 484.73246647 51.65759456 484.74050931 41.92626232 484.73078761 C36.96275926 484.72624431 31.99948187 484.72813102 27.03600979 484.74754906 C22.48707329 484.7651913 17.93852692 484.76417434 13.38958621 484.74865177 C11.74885234 484.7462773 10.10809139 484.75059082 8.46739888 484.76248042 C-7.35076363 484.86995753 -19.4637566 481.4437026 -31.32941723 470.63226891 C-41.46497298 460.09210015 -43.46474163 447.76638954 -43.26691723 433.81976891 C-43.25789379 432.61127281 -43.24887035 431.40277672 -43.23957348 430.15765953 C-43.21611891 427.19065612 -43.18329517 424.22406748 -43.14191723 421.25726891 C-44.14351879 421.29207359 -45.14512035 421.32687828 -46.17707348 421.36273766 C-59.85850994 421.70296931 -59.85850994 421.70296931 -65.14191723 418.25726891 C-67.96164783 415.47464003 -70.98989528 412.45867824 -71.27334499 408.35408115 C-71.27631966 407.57336404 -71.27929432 406.79264692 -71.28235912 405.98827171 C-71.28806927 405.0924337 -71.29377941 404.19659569 -71.29966259 403.27361107 C-71.30078045 402.28812782 -71.30189831 401.30264458 -71.30305004 400.2872982 C-71.30801495 399.25140556 -71.31297985 398.21551292 -71.31809521 397.1482296 C-71.33274209 393.70930894 -71.3395232 390.27043442 -71.34504223 386.83148766 C-71.35079179 384.44735779 -71.35654954 382.06322795 -71.36231518 379.67909813 C-71.37283249 374.67463528 -71.37867032 369.67018853 -71.3821516 364.66571617 C-71.38763655 358.24955263 -71.41166171 351.83360129 -71.44012356 345.41750431 C-71.45873741 340.49074747 -71.46395489 335.56404185 -71.46548748 330.63725281 C-71.46851758 328.27174088 -71.47655806 325.90622993 -71.48967266 323.54075241 C-71.50670592 320.23214471 -71.50485928 316.92405682 -71.49836254 313.6154232 C-71.50757732 312.63601265 -71.51679211 311.6566021 -71.52628613 310.64751244 C-71.48995654 304.74845557 -70.88845003 301.08963086 -66.64191723 296.71039391 C-58.46771441 290.15400206 -56.00073925 292.25726891 -43.14191723 292.25726891 C-43.14191723 259.25726891 -43.14191723 226.25726891 -43.14191723 192.25726891 C-48.42191723 192.25726891 -53.70191723 192.25726891 -59.14191723 192.25726891 C-69.14191723 187.25726891 -69.14191723 187.25726891 -71.14191723 181.25726891 C-71.23866126 179.79880972 -71.2810647 178.33638863 -71.28908825 176.87474632 C-71.29624355 175.97897881 -71.30339886 175.08321129 -71.31077099 174.1602993 C-71.31345989 173.17998238 -71.3161488 172.19966545 -71.31891918 171.18964195 C-71.32549038 170.15520958 -71.33206158 169.12077721 -71.3388319 168.0549984 C-71.35856855 164.62632744 -71.37022765 161.19770027 -71.38019848 157.76898766 C-71.38427401 156.59874361 -71.38834953 155.42849957 -71.39254856 154.22279358 C-71.41340971 148.03026696 -71.42771191 141.83776252 -71.43708324 135.64520836 C-71.44815467 129.24592347 -71.48256332 122.84698563 -71.52225494 116.44782352 C-71.54838385 111.52960622 -71.55677173 106.61147214 -71.56036472 101.69319153 C-71.56523939 99.33407621 -71.57687825 96.97496483 -71.59540272 94.61591721 C-71.61971665 91.31469025 -71.61884303 88.01436829 -71.61188793 84.71307945 C-71.63110302 83.2517131 -71.63110302 83.2517131 -71.65070629 81.7608242 C-71.60701906 76.07185362 -70.97932907 72.75172675 -67.14191723 68.25726891 C-61.73094277 63.25211753 -57.55431044 63.10676218 -50.39191723 63.19476891 C-49.69453442 63.19928062 -48.9971516 63.20379234 -48.27863598 63.20844078 C-46.5663592 63.2201687 -44.8541269 63.23810238 -43.14191723 63.25726891 C-43.16286449 62.53249352 -43.18381176 61.80771812 -43.20539379 61.06097984 C-43.28962418 57.70988963 -43.34091227 54.3590232 -43.39191723 51.00726891 C-43.42543285 49.86773766 -43.45894848 48.72820641 -43.49347973 47.55414391 C-43.65487644 33.35123361 -39.00222441 22.47999193 -29.51691723 12.06976891 C-21.70612762 4.54437353 -10.78140082 0.01221682 0 0 Z " fill="#679AED" transform="translate(71.14191722869873,13.742731094360352)"/>
<path d="M0 0 C8.92016513 4.75888461 15.82247852 12.8729263 22.875 19.96484375 C23.87225677 20.96397028 24.86973802 21.9628728 25.86743164 22.96156311 C28.46705679 25.5649695 31.06366231 28.1713667 33.65960693 30.77844238 C36.31939763 33.44854274 38.9820934 36.11574277 41.64453125 38.78320312 C46.84916888 43.99850038 52.0506134 49.21696716 57.25 54.4375 C58.14678467 53.90930664 59.04356934 53.38111328 59.9675293 52.83691406 C66.8373974 48.82661004 73.62828165 45.07015609 81.0625 42.1875 C81.89998779 41.85741943 82.73747559 41.52733887 83.6003418 41.18725586 C115.20223458 29.11847601 149.44020698 30.89039784 180.25 44.4375 C187.23207278 47.63152067 193.91640054 51.08196163 200.25 55.4375 C200.4911705 54.87199432 200.732341 54.30648865 200.9808197 53.72384644 C202.50791005 50.97289168 204.33751116 49.08834687 206.55688477 46.85595703 C207.44863907 45.95467072 208.34039337 45.0533844 209.25917053 44.12478638 C210.23625303 43.14796547 211.21367365 42.17148269 212.19140625 41.1953125 C213.19853753 40.18429002 214.20544624 39.17304577 215.21214294 38.16159058 C217.32463587 36.04163976 219.440957 33.92560053 221.55981445 31.81201172 C224.25570926 29.12188234 226.94013136 26.42062743 229.62147617 23.71600533 C231.70018948 21.62244646 233.78591075 19.5359768 235.87360954 17.45138168 C236.8649733 16.45950918 237.8540178 15.46531233 238.84054756 14.46863174 C254.70690399 -1.54074389 254.70690399 -1.54074389 265.3125 -1.9375 C272.34139074 -1.85382273 277.84116919 0.40982538 283.1015625 5.08203125 C287.68403574 10.08211905 290.34416344 15.41485793 290.75 22.25 C290.1312102 34.16419304 281.63059177 41.73907817 273.60546875 49.5703125 C272.46808685 50.69834923 271.3318184 51.82750964 270.1966095 52.95773315 C267.23038391 55.90502316 264.24944994 58.83697408 261.26501465 61.76580811 C258.21242968 64.76690836 255.17424955 67.78251707 252.13476562 70.796875 C246.18704877 76.6912419 240.22368802 82.56945575 234.25 88.4375 C235.49543064 91.60031684 236.79913507 94.58643274 238.45703125 97.5546875 C253.88840041 125.66129497 259.6424964 156.95642816 252.25 188.4375 C252.0943457 189.11458008 251.93869141 189.79166016 251.77832031 190.48925781 C248.31537032 204.99770501 241.94668744 218.69746248 234.25 231.4375 C234.86530075 232.04613892 235.4806015 232.65477783 236.11454773 233.28186035 C241.9334666 239.04047763 247.74499902 244.80642801 253.54851055 250.58057404 C256.53186285 253.54832136 259.51791903 256.51323421 262.51049805 259.47167969 C265.40251328 262.33091652 268.28697432 265.19758251 271.16651344 268.06938171 C272.26219898 269.15955678 273.36050614 270.24710398 274.46155357 271.3318634 C290.27446179 286.92024611 290.27446179 286.92024611 290.5625 297.5625 C290.4649001 304.28802061 288.98747891 309.38530009 284.44921875 314.4453125 C279.11016439 319.40078432 273.8286174 322.48780643 266.4375 322.9375 C254.52364117 322.31996889 246.94789953 313.81755654 239.1171875 305.79296875 C237.98915077 304.65558685 236.85999036 303.5193184 235.72976685 302.3841095 C232.78247684 299.41788391 229.85052592 296.43694994 226.92169189 293.45251465 C223.92059164 290.39992968 220.90498293 287.36174955 217.890625 284.32226562 C211.9962581 278.37454877 206.11804425 272.41118802 200.25 266.4375 C196.58905908 267.848716 193.25041045 269.52295063 189.8347168 271.45849609 C161.25066019 287.45271351 128.49971098 291.60020056 96.75 283.6875 C84.81323577 280.29651495 74.00905491 275.75067185 63.52758789 269.1574707 C61.42249404 267.83728136 61.42249404 267.83728136 58.25 266.4375 C54.45258791 267.64471749 52.08304232 270.39411938 49.34887695 273.19091797 C48.87507095 273.67246338 48.40126495 274.15400879 47.9131012 274.65014648 C46.88737513 275.69348737 45.86387616 276.73902142 44.84237099 277.78649521 C43.21977454 279.44864534 41.58965204 281.10305477 39.95707703 282.75540161 C35.31699384 287.45338422 30.68656505 292.16070186 26.0715332 296.88330078 C23.24431477 299.7753199 20.40473537 302.65471634 17.55724144 305.52676773 C16.47973949 306.61844271 15.4069155 307.71475715 14.33910561 308.81591415 C7.79880638 315.5574914 1.95909171 321.03776144 -7.46484375 323.00390625 C-14.89999672 322.9908392 -20.99764244 320.76327375 -26.60546875 315.79296875 C-32.20442673 309.66867644 -34.39264757 303.39245045 -34.078125 295.125 C-32.17874079 279.56813889 -11.31442396 264.81569071 -0.94018555 254.44238281 C1.84287965 251.6570961 4.61780411 248.8638564 7.39257812 246.0703125 C9.15836629 244.30159613 10.92462471 242.53334909 12.69140625 240.765625 C13.52152725 239.92831848 14.35164825 239.09101196 15.20692444 238.22833252 C15.97209885 237.46623474 16.73727325 236.70413696 17.52563477 235.91894531 C18.19861099 235.24454407 18.87158722 234.57014282 19.56495667 233.87530518 C21.25 232.4375 21.25 232.4375 23.25 232.4375 C22.66992188 231.44492187 22.08984375 230.45234375 21.4921875 229.4296875 C4.19009102 199.48417961 -4.0045582 166.62483331 4.25 132.4375 C4.54003906 131.16261719 4.83007812 129.88773438 5.12890625 128.57421875 C7.55042374 118.65511571 11.28332999 109.80951857 16.19140625 100.87890625 C16.67420044 99.99936279 16.67420044 99.99936279 17.16674805 99.10205078 C18.07468741 97.46567803 19.00165483 95.83990529 19.9296875 94.21484375 C21.53622787 91.34793884 21.53622787 91.34793884 21.25 87.4375 C19.5165101 85.12086889 19.5165101 85.12086889 17.10668945 82.84008789 C16.20187332 81.93557388 15.29705719 81.03105988 14.36482239 80.09913635 C13.36451223 79.11926848 12.36399326 78.13961372 11.36328125 77.16015625 C10.34305624 76.14739743 9.32371514 75.13374747 8.30522156 74.11924744 C5.61807406 71.44737788 2.91914805 68.78772 0.21759033 66.13043213 C-2.51503681 63.43851677 -5.23658353 60.73545331 -7.95898438 58.03320312 C-12.76461155 53.265855 -17.57990638 48.50849788 -22.40238953 43.75819397 C-23.56445671 42.60945045 -23.56445671 42.60945045 -24.75 41.4375 C-25.64568192 40.55247299 -26.54136383 39.66744598 -27.46418762 38.75559998 C-32.25707895 33.89500802 -34.00039333 29.26295148 -34.25 22.4375 C-33.96431545 15.54644232 -32.43125579 11.20239129 -27.62109375 6.2421875 C-19.33897807 -1.37135541 -11.09826703 -4.49721082 0 0 Z " fill="#DCE0E6" transform="translate(141.75,95.5625)"/>
<path d="M0 0 C12.53345767 9.65133125 21.47903405 22.21416172 24.859375 37.83984375 C27.32334023 57.50463289 23.93658213 74.61886737 12.35546875 90.78515625 C4.83731058 99.75744377 -4.85237718 105.98710859 -15.73046875 110.11328125 C-16.54515625 110.43296875 -17.35984375 110.75265625 -18.19921875 111.08203125 C-33.4872542 116.17804307 -50.51189254 113.64969234 -64.79296875 106.98828125 C-81.57905802 98.39892823 -91.49937736 85.07963593 -97.34375 67.421875 C-98.89219253 62.13672762 -99.19473552 57.22108699 -99.10546875 51.73828125 C-99.09386719 50.81708496 -99.08226562 49.89588867 -99.0703125 48.94677734 C-98.69373494 33.23297092 -92.9310063 18.54157956 -81.921875 7.1015625 C-58.91419747 -13.77349608 -26.14885324 -18.06852091 0 0 Z " fill="#4A6FC8" transform="translate(306.73046875,204.88671875)"/>
<path d="M0 0 C4.95520521 2.57289501 8.49116963 5.98233926 11 11 C11.09872629 12.54485886 11.13504458 14.09390588 11.14044189 15.64190674 C11.14900711 17.10970833 11.14900711 17.10970833 11.15774536 18.60716248 C11.15886322 19.68458206 11.15998108 20.76200165 11.16113281 21.87207031 C11.16609772 23.00389236 11.17106262 24.13571442 11.17617798 25.30183411 C11.19082895 29.06060384 11.19760691 32.81933136 11.203125 36.578125 C11.20887455 39.1840617 11.2146323 41.78999839 11.22039795 44.39593506 C11.22997339 49.16703383 11.23586748 53.93812346 11.2388947 58.70923066 C11.24337187 65.72689837 11.26090224 72.74437095 11.2898953 79.76197934 C11.31414266 85.84243728 11.32184036 91.92281487 11.32357025 98.00331879 C11.3265993 100.58849906 11.33463627 103.17367845 11.34775543 105.75882721 C11.36480039 109.37615239 11.36293899 112.99300257 11.35644531 116.61035156 C11.3656601 117.67967422 11.37487488 118.74899689 11.3843689 119.85072327 C11.34927061 126.08879266 10.92399003 130.86768498 6.46484375 135.64453125 C1.51438419 139.4301768 -1.70654105 140.81940153 -8 140 C-12.80373835 138.22155361 -16.21636992 135.28250781 -19 131 C-19.94899062 128.02619132 -20.13125242 125.31160213 -20.14717102 122.20024109 C-20.15432632 121.23723083 -20.16148163 120.27422058 -20.16885376 119.2820282 C-20.17154266 118.23207169 -20.17423157 117.18211517 -20.17700195 116.1003418 C-20.18357315 114.98934113 -20.19014435 113.87834045 -20.19691467 112.7336731 C-20.2166325 109.05552096 -20.22830596 105.3774096 -20.23828125 101.69921875 C-20.24235678 100.44287943 -20.2464323 99.18654011 -20.25063133 97.8921299 C-20.2693349 91.92966919 -20.28390334 85.96722142 -20.2922433 80.00473851 C-20.30201439 73.13363175 -20.32833626 66.26284723 -20.36874419 59.39185399 C-20.40259088 53.43101513 -20.4143921 47.47025487 -20.41844749 41.5093174 C-20.42331986 38.97798284 -20.43495221 36.44665188 -20.45348549 33.91538048 C-20.4778158 30.37260602 -20.4769227 26.83067411 -20.4699707 23.2878418 C-20.48278076 22.24395798 -20.49559082 21.20007416 -20.50878906 20.1245575 C-20.46397648 13.85508494 -19.70219501 10.11331502 -16 5 C-11.13249607 0.48865489 -6.61649365 -0.90396118 0 0 Z " fill="#D9DDE4" transform="translate(462,186)"/>
</svg>
